<svg width="12" height="13" viewBox="0 0 12 13" fill="none" xmlns="http://www.w3.org/2000/svg">
<path fill-rule="evenodd" clip-rule="evenodd" d="M10.193 4.46995C10.3338 4.32912 10.5248 4.25 10.724 4.25C10.9231 4.25 11.1141 4.32912 11.255 4.46995C11.3958 4.61078 11.4749 4.80178 11.4749 5.00095C11.4749 5.20011 11.3958 5.39112 11.255 5.53195L6.52997 10.2559C6.38935 10.3964 6.19872 10.4753 5.99997 10.4753C5.80122 10.4753 5.6106 10.3964 5.46997 10.2559L0.744972 5.53195C0.604142 5.39112 0.525024 5.20011 0.525024 5.00095C0.525024 4.80178 0.604142 4.61078 0.744972 4.46995C0.885802 4.32912 1.07681 4.25 1.27597 4.25C1.47514 4.25 1.66614 4.32912 1.80697 4.46995L5.99997 8.66295L10.193 4.46995Z" fill="black"/>
</svg>
